<svg width="205" height="73" viewBox="0 0 205 73" fill="none" xmlns="http://www.w3.org/2000/svg">
<g clip-path="url(#clip0)">
<path fill-rule="evenodd" clip-rule="evenodd" d="M9.1135 0H197.712C200.46 0 201.457 0.286151 202.463 0.824238C203.456 1.34999 204.268 2.1622 204.794 3.15543C205.331 4.16007 205.618 5.15693 205.618 7.90647V59.9346C205.618 62.6841 205.331 63.681 204.794 64.6856C204.268 65.6788 203.456 66.491 202.463 67.0168C201.457 67.5549 200.46 67.841 197.712 67.841H9.1135C6.36396 67.841 5.3671 67.5549 4.36246 67.0168C3.36895 66.4912 2.55645 65.6789 2.03049 64.6856C1.49396 63.681 1.20703 62.6841 1.20703 59.9346V7.90647C1.20703 5.15693 1.49318 4.16007 2.03127 3.15543C2.55689 2.16192 3.36912 1.34941 4.36246 0.823461C5.3671 0.287706 6.36396 0 9.1135 0Z" fill="white"/>
<path d="M47.0117 32.262C46.9713 27.8352 50.7247 25.6821 50.8965 25.5818C48.7706 22.5554 45.4752 22.1425 44.3182 22.1091C41.55 21.8245 38.8658 23.7264 37.456 23.7264C36.0183 23.7264 33.848 22.1363 31.5075 22.1837C28.4975 22.2288 25.6803 23.9302 24.136 26.5732C20.9479 31.9618 23.3258 39.8807 26.3801 44.236C27.9073 46.3704 29.6926 48.7506 32.03 48.6674C34.3161 48.5765 35.1699 47.2452 37.9288 47.2452C40.6628 47.2452 41.4645 48.6674 43.8478 48.6138C46.301 48.5765 47.8461 46.4708 49.3204 44.3184C51.0855 41.8745 51.7954 39.4655 51.8234 39.3419C51.7674 39.3224 47.0599 37.5674 47.0117 32.2628V32.262ZM42.5095 19.2437C43.7397 17.7429 44.581 15.7002 44.347 13.6272C42.5671 13.705 40.3424 14.8293 39.0594 16.2974C37.9265 17.5913 36.9133 19.7126 37.1745 21.7071C39.1737 21.8525 41.2265 20.7219 42.5095 19.2437ZM77.8662 14.3076H81.0046C82.0185 14.3076 82.905 14.5136 83.6631 14.925C84.4035 15.3184 85.0113 15.9216 85.4104 16.659C85.817 17.4031 86.0208 18.2554 86.0208 19.2141C86.0208 20.1737 85.817 21.0259 85.4104 21.77C85.0113 22.5074 84.4035 23.1106 83.6631 23.5041C82.905 23.9154 82.0185 24.1207 81.0038 24.1207H77.8655V14.3076H77.8662ZM80.9766 22.6542C82.073 22.6542 82.9299 22.3509 83.5465 21.7428C84.1631 21.1355 84.4718 20.2926 84.4718 19.2141C84.4718 18.1457 84.1631 17.3052 83.5465 16.6924C82.9299 16.0805 82.073 15.7749 80.9766 15.7749H79.4004V22.6542H80.9766ZM90.5976 24.34C89.8947 24.34 89.2641 24.1782 88.7065 23.854C88.1572 23.5376 87.7065 23.0748 87.4049 22.5173C87.0938 21.9512 86.9383 21.3198 86.9383 20.6262C86.9383 19.9318 87.0938 19.3012 87.4049 18.7344C87.7066 18.1771 88.1573 17.7146 88.7065 17.3985C89.2641 17.0742 89.8947 16.9117 90.5976 16.9117C91.3013 16.9117 91.9319 17.0766 92.4895 17.4055C93.0381 17.7255 93.4884 18.19 93.7912 18.7484C94.1022 19.3152 94.2577 19.9404 94.2577 20.6262C94.2577 21.3206 94.1022 21.9512 93.7912 22.5173C93.4895 23.0748 93.0388 23.5376 92.4895 23.854C91.9319 24.1782 91.3013 24.34 90.5976 24.34ZM90.5976 22.9559C90.9817 22.9559 91.3379 22.8626 91.6668 22.6752C91.9957 22.4878 92.2585 22.2179 92.4553 21.8665C92.6512 21.5142 92.75 21.1013 92.75 20.6262C92.75 20.1511 92.6512 19.7398 92.4545 19.3922C92.2704 19.058 91.9979 18.7809 91.6668 18.5913C91.3415 18.4047 90.9726 18.3076 90.5976 18.3098C90.2143 18.3098 89.8581 18.4031 89.5292 18.5905C89.2003 18.7779 88.9375 19.0454 88.7407 19.3922C88.5448 19.7398 88.446 20.1511 88.446 20.6262C88.446 21.1005 88.5448 21.5142 88.7415 21.8665C88.9375 22.2179 89.2003 22.4878 89.5292 22.6752C89.8581 22.8618 90.2135 22.9559 90.5976 22.9559ZM94.7235 17.1318H96.3541L97.7662 22.134H97.8206L99.3967 17.131H100.946L102.508 22.134H102.562L103.974 17.131H105.578L103.344 24.1215H101.754L100.15 19.1045H100.109L98.5196 24.1207H96.9567L94.7235 17.131V17.1318ZM106.551 17.1318H107.99V18.0493H108.058C108.26 17.7204 108.559 17.449 108.956 17.2336C109.345 17.0213 109.781 16.9105 110.224 16.9117C111.074 16.9117 111.72 17.1605 112.163 17.6582C112.606 18.1566 112.828 18.8354 112.828 19.6939V24.1207H111.32V19.9C111.32 19.3518 111.186 18.9498 110.916 18.6939C110.646 18.4373 110.274 18.3098 109.799 18.3098C109.461 18.3098 109.159 18.4031 108.894 18.5905C108.63 18.7779 108.424 19.0267 108.278 19.337C108.131 19.648 108.058 19.9824 108.058 20.3385V24.1207H106.551V17.131V17.1318ZM114.527 14.3076H116.035V24.1207H114.527V14.3076ZM121.01 24.34C120.306 24.34 119.676 24.1782 119.119 23.854C118.569 23.5377 118.118 23.075 117.816 22.5173C117.506 21.9512 117.35 21.3198 117.35 20.6262C117.35 19.9318 117.506 19.3012 117.817 18.7344C118.119 18.1771 118.569 17.7146 119.119 17.3985C119.676 17.0742 120.306 16.9117 121.01 16.9117C121.713 16.9117 122.344 17.0766 122.902 17.4055C123.45 17.7255 123.9 18.19 124.203 18.7484C124.514 19.3152 124.67 19.9404 124.67 20.6262C124.67 21.3206 124.514 21.9512 124.203 22.5173C123.902 23.0748 123.451 23.5376 122.902 23.854C122.344 24.1782 121.713 24.34 121.01 24.34ZM121.01 22.9559C121.394 22.9559 121.75 22.8626 122.079 22.6752C122.408 22.4878 122.67 22.2179 122.867 21.8665C123.063 21.5142 123.162 21.1013 123.162 20.6262C123.162 20.1511 123.063 19.7398 122.867 19.3922C122.682 19.058 122.41 18.7809 122.079 18.5913C121.754 18.4047 121.385 18.3076 121.01 18.3098C120.626 18.3098 120.269 18.4031 119.94 18.5905C119.612 18.7779 119.35 19.0454 119.153 19.3922C118.956 19.7398 118.858 20.1511 118.858 20.6262C118.858 21.1005 118.956 21.5142 119.153 21.8665C119.35 22.2179 119.612 22.4878 119.94 22.6752C120.269 22.8618 120.626 22.9559 121.01 22.9559ZM128.246 24.34C127.744 24.34 127.296 24.242 126.903 24.0453C126.523 23.8604 126.205 23.5703 125.985 23.2094C125.763 22.8393 125.649 22.4146 125.656 21.9831C125.656 21.2607 125.928 20.69 126.471 20.2693C127.016 19.8494 127.702 19.6395 128.534 19.6395C128.945 19.6395 129.315 19.6783 129.644 19.7561C129.973 19.8339 130.233 19.9178 130.425 20.0096V19.6527C130.425 19.2235 130.265 18.8743 129.946 18.6045C129.626 18.3347 129.215 18.2002 128.712 18.2002C128.355 18.2002 128.02 18.2779 127.705 18.4334C127.4 18.5795 127.138 18.8012 126.944 19.0773L125.889 18.2686C126.2 17.8394 126.601 17.5058 127.094 17.2686C127.588 17.0307 128.136 16.9117 128.74 16.9117C129.754 16.9117 130.535 17.1605 131.083 17.6582C131.631 18.1566 131.905 18.858 131.905 19.7623V24.1207H130.425V23.2848H130.357C130.156 23.5865 129.873 23.8376 129.507 24.039C129.142 24.2397 128.722 24.34 128.246 24.34ZM128.506 23.0927C128.872 23.0927 129.201 23.0064 129.494 22.8322C129.785 22.6588 130.015 22.4263 130.178 22.134C130.342 21.8456 130.427 21.5193 130.425 21.1876C130.194 21.0606 129.948 20.9639 129.692 20.8999C129.408 20.8263 129.115 20.7898 128.821 20.7911C128.255 20.7911 127.84 20.9023 127.575 21.1262C127.31 21.3502 127.177 21.6402 127.177 21.9971C127.177 22.3159 127.3 22.5787 127.548 22.7848C127.794 22.9901 128.114 23.0927 128.506 23.0927ZM136.469 24.34C135.839 24.34 135.268 24.1806 134.757 23.8602C134.241 23.5363 133.822 23.0798 133.544 22.5383C133.246 21.9761 133.098 21.3385 133.098 20.6254C133.098 19.9132 133.246 19.2763 133.544 18.7141C133.822 18.1727 134.241 17.7161 134.757 17.3923C135.27 17.0716 135.864 16.9049 136.47 16.9117C136.963 16.9117 137.406 17.0213 137.799 17.2406C138.192 17.4599 138.489 17.7297 138.69 18.0493H138.758L138.69 17.0626V14.3076H140.197V24.1207H138.759V23.2164H138.69C138.489 23.5274 138.192 23.7918 137.798 24.011C137.391 24.234 136.933 24.3473 136.469 24.34ZM136.689 22.9559C137.054 22.9559 137.394 22.8602 137.71 22.6682C138.025 22.4761 138.278 22.2016 138.47 21.8455C138.662 21.4893 138.758 21.0834 138.758 20.6262C138.758 20.169 138.662 19.7647 138.47 19.4132C138.294 19.0782 138.032 18.7965 137.71 18.5975C137.401 18.409 137.047 18.3092 136.685 18.3092C136.324 18.3092 135.969 18.409 135.661 18.5975C135.336 18.7949 135.071 19.0768 134.893 19.4132C134.701 19.7647 134.606 20.169 134.606 20.6262C134.606 21.0827 134.701 21.4893 134.893 21.8455C135.085 22.2024 135.341 22.4761 135.661 22.6682C135.98 22.8602 136.323 22.9559 136.689 22.9559ZM148.434 24.34C147.731 24.34 147.1 24.1782 146.542 23.854C145.993 23.5376 145.542 23.0748 145.241 22.5173C144.93 21.9512 144.774 21.3198 144.774 20.6262C144.774 19.9318 144.93 19.3012 145.241 18.7344C145.543 18.1771 145.993 17.7146 146.542 17.3985C147.1 17.0742 147.731 16.9117 148.434 16.9117C149.137 16.9117 149.768 17.0766 150.325 17.4055C150.874 17.7255 151.324 18.19 151.627 18.7484C151.938 19.3152 152.094 19.9404 152.094 20.6262C152.094 21.3206 151.938 21.9512 151.627 22.5173C151.325 23.0748 150.875 23.5376 150.325 23.854C149.768 24.1782 149.137 24.34 148.434 24.34ZM148.434 22.9559C148.818 22.9559 149.174 22.8626 149.503 22.6752C149.832 22.4878 150.094 22.2179 150.291 21.8665C150.488 21.5142 150.586 21.1013 150.586 20.6262C150.586 20.1511 150.488 19.7398 150.29 19.3922C150.106 19.058 149.834 18.7809 149.503 18.5913C149.178 18.4049 148.809 18.3078 148.434 18.3098C148.05 18.3098 147.694 18.4031 147.365 18.5905C147.036 18.7779 146.774 19.0454 146.577 19.3922C146.381 19.7398 146.282 20.1511 146.282 20.6262C146.282 21.1005 146.381 21.5142 146.577 21.8665C146.773 22.2179 147.036 22.4878 147.365 22.6752C147.694 22.8618 148.05 22.9559 148.434 22.9559ZM153.341 17.1318H154.779V18.0493H154.848C155.049 17.7204 155.349 17.449 155.746 17.2336C156.134 17.0213 156.57 16.9105 157.013 16.9117C157.863 16.9117 158.509 17.1605 158.953 17.6582C159.396 18.1566 159.617 18.8354 159.617 19.6939V24.1207H158.11V19.9C158.11 19.3518 157.975 18.9498 157.705 18.6939C157.436 18.4373 157.064 18.3098 156.589 18.3098C156.251 18.3098 155.949 18.4031 155.684 18.5905C155.419 18.7779 155.213 19.0267 155.067 19.337C154.921 19.648 154.848 19.9824 154.848 20.3385V24.1207H153.341V17.131V17.1318ZM167.389 24.2311C167.078 24.2311 166.785 24.1806 166.512 24.0795C166.237 23.9792 166.014 23.8462 165.84 23.6829C165.447 23.2894 165.25 22.7552 165.25 22.0787V18.4607H164.03V17.131H165.251V15.1575H166.758V17.131H168.457V18.4607H166.758V21.7498C166.758 22.1246 166.831 22.3898 166.977 22.5445C167.114 22.7273 167.352 22.819 167.69 22.819C167.845 22.819 167.982 22.798 168.102 22.7568C168.22 22.7164 168.347 22.6495 168.485 22.5585V24.025C168.183 24.1619 167.818 24.2303 167.389 24.2303V24.2311ZM169.965 14.3076H171.472V16.9801L171.404 18.0493H171.472C171.674 17.7204 171.972 17.449 172.37 17.2336C172.763 17.02 173.204 16.9093 173.651 16.9117C174.501 16.9117 175.15 17.1605 175.598 17.6582C176.045 18.1566 176.269 18.8354 176.269 19.6939V24.1207H174.762V19.9C174.762 19.3696 174.622 18.9723 174.344 18.7071C174.065 18.4428 173.702 18.3098 173.254 18.3098C172.916 18.3098 172.612 18.4054 172.343 18.5975C172.07 18.7934 171.85 19.0549 171.705 19.358C171.549 19.6737 171.472 20.0096 171.472 20.3657V24.1215H169.965V14.3076ZM181.176 24.34C180.491 24.34 179.876 24.1806 179.333 23.8602C178.794 23.5457 178.353 23.0882 178.058 22.5383C177.751 21.9761 177.599 21.3432 177.599 20.6394C177.594 19.9935 177.747 19.3561 178.044 18.7826C178.328 18.2253 178.757 17.7543 179.285 17.4187C179.814 17.0812 180.418 16.9117 181.094 16.9117C181.797 16.9117 182.408 17.0672 182.923 17.3783C183.439 17.6885 183.833 18.1131 184.102 18.6527C184.371 19.1916 184.506 19.7989 184.506 20.4754C184.506 20.6029 184.492 20.7631 184.465 20.9551H179.106C179.16 21.6036 179.392 22.1036 179.798 22.4559C180.189 22.8018 180.695 22.9897 181.217 22.9831C181.646 22.9831 182.018 22.8851 182.334 22.6884C182.649 22.4924 182.903 22.2249 183.094 21.8875L184.369 22.4901C184.061 23.0438 183.618 23.5106 183.081 23.847C182.551 24.1759 181.916 24.34 181.176 24.34ZM182.971 19.8035C182.949 19.5448 182.87 19.2943 182.738 19.0703C182.588 18.8153 182.373 18.6049 182.114 18.4607C181.836 18.2958 181.496 18.2142 181.094 18.2142C180.609 18.2142 180.2 18.358 179.867 18.6457C179.533 18.9334 179.303 19.3191 179.175 19.8043H182.971V19.8035ZM81.9423 34.2627H85.6436L92.068 51.361H88.5098L87.0767 47.2771H80.5334L79.101 51.361H75.5428L81.9423 34.2627ZM86.0262 44.3169L84.5216 40.0176L83.9011 37.9648H83.7098L83.0885 40.0176L81.5605 44.3161H86.0262V44.3169ZM93.0011 39.1825H95.938V40.663H96.1293C96.4637 40.1373 96.9497 39.6957 97.5858 39.3372C98.2234 38.9795 98.9551 38.8007 99.7832 38.8007C100.882 38.8007 101.88 39.0744 102.78 39.6241C103.68 40.1731 104.384 40.9414 104.893 41.9281C105.403 42.9157 105.658 44.0299 105.658 45.2717C105.658 46.5291 105.403 47.648 104.893 48.627C104.384 49.606 103.68 50.3703 102.78 50.9193C101.88 51.4683 100.882 51.7435 99.7832 51.7435C98.9551 51.7435 98.2187 51.5678 97.5749 51.2179C96.9295 50.868 96.4474 50.4294 96.1293 49.9038H95.938L96.1293 51.6238V56.5187H93.0011V39.1825ZM99.2342 48.8533C99.8229 48.8533 100.372 48.7024 100.882 48.3999C101.394 48.0947 101.814 47.6575 102.1 47.134C102.402 46.5928 102.553 45.9723 102.553 45.2717C102.553 44.5711 102.402 43.9498 102.1 43.4086C101.816 42.8871 101.395 42.4535 100.882 42.1552C100.382 41.8631 99.8126 41.7106 99.2335 41.7135C98.6604 41.7135 98.1192 41.8612 97.6099 42.1552C97.0967 42.4535 96.6755 42.8871 96.3922 43.4086C96.0897 43.9498 95.938 44.5711 95.938 45.2717C95.938 45.9715 96.0897 46.5936 96.3922 47.134C96.6773 47.6575 97.0979 48.0947 97.6099 48.3999C98.0996 48.6968 98.6615 48.8536 99.2342 48.8533ZM106.758 39.1825H109.696V40.663H109.886C110.221 40.1373 110.707 39.6957 111.344 39.3372C111.98 38.9795 112.712 38.8007 113.54 38.8007C114.639 38.8007 115.637 39.0744 116.537 39.6241C117.437 40.1731 118.141 40.9414 118.65 41.9281C119.16 42.9157 119.415 44.0299 119.415 45.2717C119.415 46.5291 119.16 47.648 118.65 48.627C118.141 49.606 117.437 50.3703 116.537 50.9193C115.637 51.4683 114.639 51.7435 113.54 51.7435C112.712 51.7435 111.976 51.5678 111.332 51.2179C110.686 50.868 110.204 50.4294 109.886 49.9038H109.696L109.886 51.6238V56.5187H106.758V39.1825ZM112.991 48.8533C113.58 48.8533 114.129 48.7024 114.639 48.3999C115.151 48.0947 115.571 47.6575 115.857 47.134C116.159 46.5928 116.31 45.9723 116.31 45.2717C116.31 44.5711 116.159 43.9498 115.857 43.4086C115.573 42.8871 115.152 42.4535 114.639 42.1552C114.139 41.8631 113.57 41.7106 112.99 41.7135C112.418 41.7135 111.876 41.8612 111.367 42.1552C110.854 42.4535 110.433 42.8871 110.149 43.4086C109.847 43.9498 109.696 44.5711 109.696 45.2717C109.696 45.9715 109.847 46.5936 110.149 47.134C110.434 47.6575 110.855 48.0947 111.367 48.3999C111.857 48.6968 112.418 48.8536 112.991 48.8533ZM130.332 51.7428C128.835 51.7428 127.514 51.3213 126.368 50.4776C125.222 49.634 124.418 48.4404 123.956 46.8953L126.989 45.7017C127.228 46.6092 127.634 47.3331 128.207 47.8743C128.78 48.4155 129.496 48.6861 130.356 48.6861C131.072 48.6861 131.686 48.5073 132.194 48.1496C132.705 47.7911 132.959 47.2934 132.959 46.6566C132.959 46.0198 132.716 45.498 132.23 45.0921C131.745 44.6862 130.881 44.2523 129.639 43.7912L128.59 43.4086C127.49 43.0268 126.552 42.4421 125.771 41.6536C124.991 40.8659 124.601 39.8745 124.601 38.6809C124.601 37.789 124.831 36.9772 125.293 36.2448C125.755 35.5123 126.408 34.9353 127.251 34.5139C128.095 34.0916 129.051 33.8809 130.118 33.8809C131.662 33.8809 132.879 34.2433 133.771 34.9672C134.662 35.6919 135.275 36.5395 135.61 37.5099L132.768 38.7043C132.595 38.1832 132.276 37.7231 131.848 37.3793C131.411 37.0216 130.849 36.8419 130.165 36.8419C129.465 36.8419 128.887 37.0052 128.434 37.3318C127.98 37.6584 127.753 38.0837 127.753 38.6094C127.753 39.1187 127.968 39.5526 128.398 39.9103C128.827 40.2688 129.536 40.6148 130.523 40.9491L131.598 41.3068C133.079 41.8169 134.212 42.4895 135.001 43.3254C135.788 44.1613 136.183 45.2554 136.183 46.6092C136.183 47.7234 135.896 48.6667 135.323 49.4388C134.757 50.2052 133.994 50.8034 133.114 51.1697C132.235 51.5475 131.289 51.7425 130.332 51.7428ZM142.537 51.5523C141.968 51.5583 141.402 51.4655 140.865 51.2778C140.356 51.0943 139.942 50.8439 139.623 50.5251C138.875 49.8089 138.501 48.7903 138.501 47.4692V41.8566H136.376V39.1817H138.501V35.7432H141.63V39.1825H144.615V41.8574H141.629V46.8961C141.629 47.5166 141.765 47.9614 142.036 48.2328C142.259 48.487 142.64 48.6146 143.182 48.6146C143.485 48.6146 143.735 48.5757 143.934 48.4956C144.202 48.3801 144.462 48.2444 144.71 48.0897V51.1456C144.018 51.4179 143.281 51.5559 142.537 51.5523ZM151.637 51.7428C150.38 51.7428 149.258 51.4605 148.27 50.8952C147.303 50.3501 146.506 49.5485 145.966 48.5788C145.416 47.5998 145.142 46.4972 145.142 45.2717C145.142 44.0618 145.416 42.9631 145.966 41.9763C146.503 41.0013 147.301 40.1949 148.27 39.6475C149.258 39.0829 150.38 38.7999 151.637 38.7999C152.879 38.7999 153.993 39.0829 154.981 39.6475C155.95 40.1949 156.748 41.0013 157.285 41.9763C157.834 42.9639 158.109 44.0618 158.109 45.2717C158.109 46.4972 157.834 47.5998 157.285 48.5788C156.745 49.5488 155.948 50.3507 154.981 50.896C153.993 51.4605 152.879 51.7435 151.637 51.7435V51.7428ZM151.637 48.8533C152.222 48.8586 152.799 48.7106 153.309 48.424C153.823 48.1325 154.245 47.7022 154.527 47.1822C154.83 46.641 154.981 46.0042 154.981 45.2717C154.981 44.5548 154.829 43.9265 154.527 43.3853C154.245 42.8654 153.823 42.4351 153.309 42.1435C152.799 41.8567 152.222 41.7084 151.637 41.7135C151.052 41.7084 150.475 41.8567 149.965 42.1435C149.456 42.4297 149.046 42.8433 148.737 43.3853C148.426 43.9265 148.27 44.5548 148.27 45.2717C148.27 45.9879 148.426 46.6208 148.737 47.1698C149.046 47.7196 149.456 48.1371 149.965 48.424C150.476 48.7106 151.052 48.8586 151.637 48.8533ZM159.281 39.1825H162.218V40.8061H162.41C162.712 40.233 163.182 39.7594 163.819 39.3854C164.455 39.0113 165.181 38.8173 165.92 38.824C166.477 38.824 166.987 38.9119 167.448 39.0868V42.215C167.093 42.0794 166.73 41.9639 166.361 41.869C166.052 41.7955 165.736 41.7592 165.418 41.7609C164.495 41.7609 163.762 42.0953 163.222 42.764C162.68 43.4327 162.41 44.2764 162.41 45.2958V51.361H159.282V39.1825H159.281ZM173.492 51.7428C172.282 51.7428 171.192 51.4644 170.221 50.9069C169.263 50.3633 168.474 49.5661 167.94 48.6029C167.391 47.6231 167.116 46.5213 167.116 45.2958C167.108 44.1656 167.387 43.0519 167.928 42.0595C168.452 41.0828 169.227 40.2629 170.172 39.684C171.128 39.0946 172.194 38.7999 173.373 38.7999C174.63 38.7999 175.713 39.0705 176.62 39.6117C177.511 40.1346 178.229 40.9065 178.686 41.8325C179.156 42.7718 179.391 43.8153 179.391 44.9615C179.391 45.3269 179.367 45.6768 179.318 46.0112H170.172C170.332 46.9832 170.718 47.7196 171.331 48.2211C171.944 48.7219 172.68 48.973 173.539 48.973C174.256 48.973 174.873 48.8175 175.39 48.5073C175.902 48.2029 176.325 47.771 176.62 47.2538L179.152 48.4956C177.91 50.6604 176.023 51.7428 173.492 51.7428ZM176.381 43.7912C176.35 43.4086 176.21 43.0307 175.964 42.6567C175.717 42.2827 175.374 41.9724 174.937 41.7252C174.499 41.4787 173.986 41.355 173.396 41.355C172.648 41.355 172.007 41.5743 171.474 42.0121C170.941 42.4499 170.555 43.0424 170.315 43.7912H176.381Z" fill="#333333"/>
</g>
<defs>
<clipPath id="clip0">
<rect width="204.504" height="72.3152" fill="white" transform="translate(0.496094)"/>
</clipPath>
</defs>
</svg>
