<svg width="205" height="73" viewBox="0 0 205 73" fill="none" xmlns="http://www.w3.org/2000/svg">
<g clip-path="url(#clip0)">
<path fill-rule="evenodd" clip-rule="evenodd" d="M7.90647 0H196.505C199.253 0 200.25 0.286151 201.256 0.824238C202.249 1.34999 203.061 2.1622 203.587 3.15543C204.124 4.16007 204.411 5.15693 204.411 7.90647V59.9346C204.411 62.6841 204.124 63.681 203.587 64.6856C203.061 65.6788 202.249 66.491 201.256 67.0168C200.25 67.5549 199.253 67.841 196.505 67.841H7.90647C5.15693 67.841 4.16007 67.5549 3.15543 67.0168C2.16192 66.4912 1.34941 65.6789 0.823461 64.6856C0.287706 63.681 0 62.6841 0 59.9346V7.90647C0 5.15693 0.286151 4.16007 0.824238 3.15543C1.34986 2.16192 2.16209 1.34941 3.15543 0.823461C4.16007 0.287706 5.15693 0 7.90647 0Z" fill="white"/>
<path d="M26.6971 50.2825C27.4296 50.4108 28.2951 50.2529 29.2204 49.7615L45.4462 41.1443L40.7263 36.5099L26.6971 50.2825ZM25.3574 20.7226C24.9554 21.3027 24.7236 22.1013 24.7236 23.0842V47.0244C24.7236 47.9816 24.9429 48.7638 25.3247 49.3393L39.5249 35.0138L25.3574 20.7226ZM46.433 28.923L30.1582 20.302C29.2538 19.823 28.4063 19.6589 27.6839 19.7685L41.7193 33.5504L46.433 28.923ZM47.6398 40.4585L52.3535 38.0091C54.9864 36.6429 54.9848 34.4089 52.3504 33.045L47.611 30.5902L42.486 35.5099L47.6398 40.4585ZM81.3045 24.34C80.4016 24.3476 79.5128 24.116 78.7283 23.6689C77.9524 23.2309 77.3068 22.5947 76.8575 21.8252C76.3964 21.0438 76.1654 20.1737 76.1654 19.2141C76.1654 18.2554 76.3964 17.3845 76.8575 16.6038C77.3069 15.8346 77.9525 15.1987 78.7283 14.7609C79.5126 14.3132 80.4014 14.0812 81.3045 14.0883C82.0447 14.0883 82.7352 14.2205 83.3744 14.4864C84.0136 14.7508 84.5485 15.1209 84.9778 15.596L83.9086 16.6652C83.5919 16.3109 83.2015 16.0301 82.7648 15.8425C82.2987 15.6461 81.797 15.5482 81.2913 15.5548C80.6606 15.5548 80.0712 15.7057 79.523 16.0074C78.9751 16.3087 78.5201 16.7543 78.2074 17.2958C77.8784 17.8534 77.7144 18.4925 77.7144 19.2141C77.7144 19.9365 77.8784 20.5757 78.2074 21.1332C78.5201 21.6748 78.9751 22.1204 79.523 22.4217C80.0684 22.7222 80.6818 22.8778 81.3045 22.8734C81.8892 22.8734 82.3783 22.7871 82.771 22.6129C83.16 22.4421 83.5168 22.2059 83.8262 21.9147C84.0276 21.7133 84.1994 21.4621 84.3402 21.1604C84.485 20.8482 84.58 20.5153 84.6216 20.1737H81.2913V18.8036H86.0742C86.12 19.0594 86.1426 19.3245 86.1426 19.5982C86.1426 20.2195 86.047 20.8159 85.8549 21.3867C85.6696 21.9472 85.3553 22.4565 84.9373 22.8734C84.0136 23.8516 82.8029 24.34 81.3045 24.34ZM90.7887 24.34C90.1036 24.34 89.4893 24.1805 88.9458 23.8602C88.4068 23.5457 87.9655 23.0882 87.6705 22.5383C87.365 21.9761 87.2118 21.3431 87.2118 20.6394C87.2068 19.9934 87.3598 19.356 87.6573 18.7826C87.9416 18.2254 88.3698 17.7544 88.8976 17.4187C89.4271 17.0812 90.0305 16.9117 90.7062 16.9117C91.4099 16.9117 92.0203 17.0672 92.5359 17.3782C93.0522 17.6885 93.4457 18.1131 93.7147 18.6527C93.9845 19.1916 94.119 19.7989 94.119 20.4754C94.119 20.6029 94.1058 20.7631 94.0778 20.9551H88.7195C88.7739 21.6036 89.0049 22.1036 89.4116 22.4559C89.8025 22.8016 90.308 22.9895 90.8299 22.9831C91.2591 22.9831 91.6316 22.8851 91.9473 22.6884C92.2622 22.4924 92.5157 22.2249 92.7077 21.8875L93.9822 22.4901C93.6741 23.0438 93.2308 23.5106 92.6937 23.847C92.1642 24.1759 91.5289 24.34 90.7887 24.34ZM92.5849 19.8035C92.5628 19.5448 92.483 19.2942 92.3516 19.0703C92.2015 18.8153 91.9863 18.6049 91.728 18.4606C91.4488 18.2958 91.1082 18.2142 90.7062 18.2142C90.2226 18.2142 89.8136 18.358 89.48 18.6457C89.1464 18.9334 88.9155 19.3191 88.7879 19.8043H92.5841L92.5849 19.8035ZM98.1485 24.2303C97.8374 24.2303 97.5459 24.1805 97.2714 24.0795C96.9977 23.9792 96.7737 23.8462 96.5995 23.6829C96.2069 23.2894 96.0101 22.7552 96.0101 22.0787V18.4606H94.7909V17.131H96.0101V15.1575H97.5186V17.131H99.2177V18.4606H97.5179V21.7498C97.5179 22.1246 97.591 22.3898 97.7371 22.5445C97.8748 22.7272 98.1119 22.819 98.4502 22.819C98.6057 22.819 98.7426 22.798 98.8615 22.7568C98.9797 22.7164 99.108 22.6495 99.2449 22.5585V24.025C98.9432 24.1619 98.5777 24.2303 98.1485 24.2303ZM104.727 16.117C104.444 16.117 104.204 16.019 104.008 15.8223C103.912 15.7289 103.836 15.6169 103.786 15.4932C103.735 15.3695 103.71 15.2367 103.713 15.103C103.713 14.8192 103.811 14.5797 104.008 14.383C104.204 14.187 104.444 14.0883 104.727 14.0883C105.011 14.0883 105.25 14.187 105.447 14.3838C105.643 14.5797 105.742 14.8192 105.742 15.103C105.742 15.3861 105.643 15.6256 105.446 15.8223C105.353 15.9179 105.241 15.9934 105.117 16.0441C104.993 16.0948 104.86 16.1196 104.727 16.117ZM103.973 17.131H105.481V24.1215H103.973V17.131ZM110.154 24.2303C109.843 24.2303 109.551 24.1805 109.277 24.0795C109.003 23.9792 108.78 23.8462 108.605 23.6829C108.213 23.2894 108.016 22.7552 108.016 22.0787V18.4606H106.797V17.131H108.016V15.1575H109.525V17.131H111.224V18.4606H109.524V21.7498C109.524 22.1246 109.597 22.3898 109.743 22.5445C109.88 22.7272 110.118 22.819 110.456 22.819C110.612 22.819 110.748 22.798 110.867 22.7568C110.986 22.7164 111.114 22.6495 111.251 22.5585V24.025C110.949 24.1619 110.584 24.2303 110.154 24.2303ZM119.145 24.34C118.441 24.34 117.811 24.1782 117.254 23.854C116.704 23.5377 116.253 23.0749 115.951 22.5173C115.641 21.9512 115.485 21.3198 115.485 20.6262C115.485 19.9318 115.641 19.3012 115.952 18.7344C116.254 18.1771 116.704 17.7146 117.254 17.3985C117.811 17.0742 118.441 16.9117 119.145 16.9117C119.848 16.9117 120.479 17.0765 121.037 17.4055C121.585 17.7255 122.036 18.19 122.338 18.7484C122.649 19.3152 122.805 19.9404 122.805 20.6262C122.805 21.3206 122.649 21.9512 122.338 22.5173C122.037 23.0748 121.586 23.5376 121.037 23.854C120.479 24.1782 119.848 24.34 119.145 24.34ZM119.145 22.9559C119.529 22.9559 119.885 22.8625 120.214 22.6751C120.543 22.4877 120.805 22.2179 121.002 21.8665C121.198 21.5142 121.297 21.1013 121.297 20.6262C121.297 20.1511 121.198 19.7398 121.002 19.3922C120.818 19.058 120.545 18.7809 120.214 18.5913C119.889 18.4047 119.52 18.3076 119.145 18.3098C118.761 18.3098 118.405 18.4031 118.076 18.5905C117.747 18.7779 117.485 19.0454 117.288 19.3922C117.091 19.7398 116.993 20.1511 116.993 20.6262C116.993 21.1005 117.091 21.5142 117.288 21.8665C117.485 22.2179 117.747 22.4877 118.076 22.6751C118.405 22.8618 118.761 22.9559 119.145 22.9559ZM124.051 17.1318H125.49V18.0493H125.559C125.76 17.7204 126.059 17.449 126.456 17.2336C126.845 17.0212 127.281 16.9105 127.724 16.9117C128.574 16.9117 129.221 17.1605 129.664 17.6582C130.107 18.1566 130.329 18.8354 130.329 19.6939V24.1207H128.82V19.9C128.82 19.3518 128.686 18.9497 128.416 18.6939C128.147 18.4373 127.774 18.3098 127.299 18.3098C126.962 18.3098 126.66 18.4031 126.395 18.5905C126.131 18.7779 125.925 19.0267 125.778 19.337C125.632 19.648 125.559 19.9824 125.559 20.3385V24.1207H124.051V17.131V17.1318ZM75.9353 34.2619H81.9538C83.0361 34.2619 84.0229 34.489 84.9148 34.9431C85.8059 35.3964 86.5065 36.0332 87.0158 36.8528C87.5251 37.6732 87.7802 38.6086 87.7802 39.6591C87.7802 40.7096 87.5251 41.649 87.0158 42.4771C86.5095 43.3021 85.7815 43.9682 84.9148 44.3993C84.0229 44.8526 83.0361 45.0796 81.9538 45.0796H79.1583V51.3602H75.9345V34.2627L75.9353 34.2619ZM82.0486 42.023C82.8449 42.023 83.47 41.792 83.9234 41.3309C84.3775 40.869 84.6038 40.3123 84.6038 39.6591C84.6038 39.0059 84.3775 38.4531 83.9234 37.999C83.47 37.5456 82.8449 37.3186 82.0494 37.3186H79.1583V42.023H82.0478H82.0486ZM89.2148 34.2627H92.343V51.3602H89.2148V34.2627ZM98.0528 51.7428C96.7636 51.7428 95.7045 51.3641 94.8772 50.6075C94.0491 49.8517 93.6354 48.861 93.6354 47.6348C93.6354 46.823 93.85 46.1068 94.28 45.4855C94.71 44.865 95.2986 44.3876 96.0467 44.0532C96.7955 43.7189 97.6228 43.5517 98.5303 43.5517C99.7884 43.5517 100.863 43.7344 101.754 44.1007V43.575C101.754 42.9063 101.504 42.3651 101.002 41.9514C100.501 41.5378 99.8281 41.3309 98.9844 41.3309C98.4113 41.3309 97.8577 41.4616 97.3242 41.7244C96.8124 41.9703 96.3602 42.3248 95.9992 42.7632L93.9931 41.1871C94.5784 40.4261 95.3407 39.8196 96.2139 39.4204C97.1057 39.0059 98.0769 38.7991 99.1275 38.7991C100.99 38.7991 102.407 39.2291 103.378 40.0891C104.35 40.9484 104.835 42.2065 104.835 43.862V51.3602H101.754V50.1184H101.563C101.197 50.5958 100.715 50.9862 100.118 51.2887C99.5217 51.5911 98.8328 51.742 98.0528 51.742V51.7428ZM98.7931 49.3066C99.7005 49.3066 100.421 49.0158 100.955 48.4349C101.487 47.8541 101.754 47.1729 101.754 46.393C100.956 46.014 100.083 45.8182 99.199 45.8199C97.5754 45.8199 96.7636 46.4249 96.7636 47.6348C96.7636 48.1286 96.9386 48.5306 97.2885 48.8408C97.6384 49.1519 98.1407 49.3066 98.7931 49.3066ZM110.305 50.7871L105.172 39.1817H108.729L111.881 46.7515H112.073L115.105 39.1817H118.592L111.07 56.5179H107.703L110.305 50.7871ZM128.817 51.742C127.32 51.742 125.999 51.3205 124.853 50.4769C123.706 49.6332 122.903 48.4396 122.441 46.8945L125.474 45.7009C125.712 46.6084 126.119 47.3323 126.691 47.8735C127.264 48.4147 127.981 48.6853 128.84 48.6853C129.557 48.6853 130.17 48.5065 130.679 48.1488C131.189 47.7903 131.444 47.2927 131.444 46.6558C131.444 46.019 131.2 45.4972 130.715 45.0913C130.23 44.6854 129.366 44.2515 128.124 43.7904L127.074 43.4078C125.975 43.0261 125.037 42.4413 124.256 41.6528C123.476 40.8652 123.086 39.8737 123.086 38.6801C123.086 37.7883 123.317 36.9765 123.778 36.244C124.24 35.5115 124.893 34.9345 125.736 34.5131C126.58 34.0908 127.535 33.8801 128.602 33.8801C130.146 33.8801 131.364 34.2425 132.256 34.9664C133.147 35.6911 133.76 36.5387 134.095 37.5091L131.253 38.7035C131.08 38.1824 130.761 37.7223 130.333 37.3785C129.896 37.0208 129.334 36.8412 128.65 36.8412C127.949 36.8412 127.372 37.0044 126.918 37.331C126.465 37.6576 126.238 38.083 126.238 38.6086C126.238 39.1179 126.453 39.5518 126.883 39.9095C127.313 40.268 128.021 40.614 129.008 40.9484L130.082 41.306C131.563 41.8161 132.697 42.4887 133.485 43.3246C134.273 44.1605 134.667 45.2546 134.667 46.6084C134.667 47.7227 134.381 48.6659 133.808 49.438C133.242 50.2043 132.479 50.8025 131.599 51.1689C130.72 51.5468 129.774 51.7417 128.817 51.742ZM141.021 51.5515C140.452 51.5575 139.887 51.4647 139.349 51.277C138.841 51.0935 138.427 50.8431 138.108 50.5243C137.36 49.8081 136.986 48.7895 136.986 47.4684V41.8558H134.861V39.1809H136.986V35.7424H140.114V39.1817H143.1V41.8566H140.114V46.8953C140.114 47.5158 140.249 47.9606 140.521 48.232C140.743 48.4862 141.126 48.6138 141.667 48.6138C141.969 48.6138 142.22 48.5749 142.419 48.4948C142.687 48.3793 142.947 48.2436 143.195 48.0889V51.1448C142.503 51.4171 141.765 51.5551 141.021 51.5515ZM150.122 51.742C148.865 51.742 147.743 51.4597 146.755 50.8944C145.788 50.3495 144.991 49.5478 144.45 48.578C143.901 47.599 143.626 46.4964 143.626 45.2709C143.626 44.061 143.901 42.9623 144.45 41.9755C144.988 41.0004 145.786 40.194 146.755 39.6467C147.743 39.0822 148.865 38.7991 150.122 38.7991C151.364 38.7991 152.478 39.0822 153.466 39.6467C154.435 40.1941 155.233 41.0005 155.77 41.9755C156.319 42.9631 156.594 44.061 156.594 45.2709C156.594 46.4964 156.319 47.599 155.77 48.578C155.23 49.5481 154.432 50.35 153.465 50.8952C152.478 51.4597 151.364 51.7428 150.121 51.7428L150.122 51.742ZM150.122 48.8525C150.707 48.8578 151.284 48.7098 151.794 48.4233C152.308 48.1317 152.73 47.7014 153.012 47.1815C153.314 46.6403 153.465 46.0034 153.465 45.2709C153.465 44.554 153.314 43.9257 153.012 43.3845C152.73 42.8646 152.308 42.4343 151.794 42.1427C151.284 41.8559 150.707 41.7076 150.122 41.7127C149.537 41.7076 148.961 41.8559 148.45 42.1427C147.941 42.4289 147.531 42.8425 147.221 43.3845C146.91 43.9257 146.754 44.554 146.754 45.2709C146.754 45.9871 146.91 46.62 147.221 47.169C147.531 47.7188 147.941 48.1363 148.45 48.4233C148.961 48.7098 149.537 48.8578 150.122 48.8525ZM157.766 39.1817H160.703V40.8053H160.894C161.197 40.2322 161.666 39.7586 162.303 39.3846C162.94 39.0104 163.666 38.8163 164.405 38.8232C164.962 38.8232 165.471 38.9111 165.933 39.086V42.2143C165.577 42.0786 165.215 41.9631 164.846 41.8682C164.537 41.7947 164.221 41.7584 163.903 41.7601C162.979 41.7601 162.247 42.0945 161.706 42.7632C161.165 43.432 160.894 44.2756 160.894 45.295V51.3602H157.766V39.1825V39.1817ZM171.977 51.742C170.767 51.742 169.676 51.4636 168.705 50.9061C167.747 50.3626 166.958 49.5653 166.424 48.6021C165.875 47.6223 165.6 46.5205 165.6 45.295C165.592 44.1648 165.872 43.0511 166.413 42.0587C166.937 41.0819 167.712 40.262 168.657 39.6832C169.612 39.0938 170.679 38.7991 171.857 38.7991C173.115 38.7991 174.198 39.0697 175.105 39.6109C175.995 40.1339 176.713 40.9059 177.17 41.8317C177.64 42.771 177.875 43.8145 177.875 44.9607C177.875 45.3261 177.852 45.6761 177.803 46.0104H168.657C168.817 46.9824 169.202 47.7188 169.816 48.2203C170.429 48.7211 171.164 48.9722 172.024 48.9722C172.74 48.9722 173.358 48.8167 173.875 48.5065C174.387 48.2021 174.81 47.7702 175.105 47.253L177.636 48.4948C176.394 50.6596 174.508 51.742 171.977 51.742ZM174.866 43.7904C174.835 43.4078 174.695 43.0299 174.448 42.6559C174.202 42.2819 173.859 41.9717 173.422 41.7244C172.984 41.4779 172.47 41.3542 171.881 41.3542C171.133 41.3542 170.492 41.5735 169.959 42.0113C169.426 42.4491 169.039 43.0416 168.8 43.7904H174.866H174.866Z" fill="#333333"/>
</g>
<defs>
<clipPath id="clip0">
<rect width="204.504" height="72.3152" fill="white"/>
</clipPath>
</defs>
</svg>
